<svg xmlns="http://www.w3.org/2000/svg" viewBox="0 0 1100 680" font-family="-apple-system, BlinkMacSystemFont, 'Segoe UI', sans-serif">
  <!-- Browser frame -->
  <rect width="1100" height="680" fill="#f9fafb" rx="12"/>
  <rect x="0" y="0" width="1100" height="30" fill="#f3f4f6" rx="12"/>
  <rect x="0" y="18" width="1100" height="12" fill="#f3f4f6"/>
  <circle cx="18" cy="14" r="5" fill="#ef4444"/>
  <circle cx="36" cy="14" r="5" fill="#f59e0b"/>
  <circle cx="54" cy="14" r="5" fill="#22c55e"/>
  <rect x="300" y="6" width="500" height="18" rx="9" fill="#e5e7eb"/>
  <text x="550" y="19" text-anchor="middle" fill="#6b7280" font-size="10">localhost:5173/cases</text>

  <!-- Sidebar (condensed) -->
  <rect x="0" y="30" width="220" height="650" fill="#111827"/>
  <text x="60" y="58" fill="white" font-size="14" font-weight="bold">TechD SOC</text>
  <text x="48" y="108" fill="#9ca3af" font-size="12">📊 Dashboard</text>
  <text x="48" y="138" fill="#9ca3af" font-size="12">⚠️ Alert Queue</text>
  <rect x="12" y="150" width="196" height="32" rx="8" fill="#2563eb"/>
  <text x="48" y="172" fill="white" font-size="12">📁 Cases</text>
  <text x="48" y="204" fill="#9ca3af" font-size="12">🏢 Customers</text>

  <!-- Top Header -->
  <rect x="220" y="30" width="880" height="50" fill="white" stroke="#e5e7eb" stroke-width="1"/>

  <!-- Page Header -->
  <text x="244" y="110" fill="#111827" font-size="20" font-weight="bold">Cases</text>
  <rect x="970" y="90" width="100" height="34" rx="8" fill="#2563eb"/>
  <text x="1020" y="112" text-anchor="middle" fill="white" font-size="12" font-weight="500">+ New Case</text>

  <!-- Filter Bar -->
  <rect x="244" y="128" width="826" height="56" rx="12" fill="white" stroke="#e5e7eb" stroke-width="1"/>
  <rect x="260" y="140" width="280" height="32" rx="8" fill="#f9fafb" stroke="#d1d5db" stroke-width="1"/>
  <text x="288" y="161" fill="#9ca3af" font-size="11">🔍 Search cases...</text>

  <rect x="556" y="140" width="120" height="32" rx="8" fill="#f9fafb" stroke="#d1d5db" stroke-width="1"/>
  <text x="572" y="161" fill="#6b7280" font-size="11">All Statuses ▾</text>

  <rect x="688" y="140" width="120" height="32" rx="8" fill="#f9fafb" stroke="#d1d5db" stroke-width="1"/>
  <text x="704" y="161" fill="#6b7280" font-size="11">All Severities ▾</text>

  <rect x="820" y="140" width="120" height="32" rx="8" fill="#f9fafb" stroke="#d1d5db" stroke-width="1"/>
  <text x="836" y="161" fill="#6b7280" font-size="11">All Priorities ▾</text>

  <!-- Data Table -->
  <rect x="244" y="200" width="826" height="460" rx="12" fill="white" stroke="#e5e7eb" stroke-width="1"/>

  <!-- Table Header -->
  <rect x="244" y="200" width="826" height="36" rx="12" fill="#f9fafb"/>
  <rect x="244" y="224" width="826" height="12" fill="#f9fafb"/>
  <text x="264" y="222" fill="#6b7280" font-size="10" font-weight="600">CASE #</text>
  <text x="360" y="222" fill="#6b7280" font-size="10" font-weight="600">SEVERITY</text>
  <text x="440" y="222" fill="#6b7280" font-size="10" font-weight="600">PRI</text>
  <text x="490" y="222" fill="#6b7280" font-size="10" font-weight="600">TITLE</text>
  <text x="700" y="222" fill="#6b7280" font-size="10" font-weight="600">STATUS</text>
  <text x="800" y="222" fill="#6b7280" font-size="10" font-weight="600">ANALYST</text>
  <text x="910" y="222" fill="#6b7280" font-size="10" font-weight="600">SLA</text>
  <text x="990" y="222" fill="#6b7280" font-size="10" font-weight="600">UPDATED</text>

  <!-- Row 1 -->
  <text x="264" y="260" fill="#2563eb" font-size="11" font-family="monospace" font-weight="500">CASE-001</text>
  <rect x="360" y="248" width="52" height="18" rx="9" fill="#fef2f2"/>
  <text x="386" y="261" text-anchor="middle" fill="#991b1b" font-size="9" font-weight="500">critical</text>
  <text x="440" y="260" fill="#ef4444" font-size="11" font-weight="600">P1</text>
  <text x="490" y="256" fill="#111827" font-size="11" font-weight="500">Ransomware detected on DC-01</text>
  <text x="490" y="270" fill="#6b7280" font-size="9">Acme Financial</text>
  <rect x="700" y="248" width="64" height="18" rx="9" fill="#fef3c7"/>
  <text x="732" y="261" text-anchor="middle" fill="#92400e" font-size="9" font-weight="500">in_progress</text>
  <text x="800" y="260" fill="#374151" font-size="11">Analyst Kumar</text>
  <text x="910" y="260" fill="#ef4444" font-size="10" font-weight="500">Breached</text>
  <text x="990" y="260" fill="#6b7280" font-size="10">2m ago</text>
  <line x1="260" y1="278" x2="1054" y2="278" stroke="#f3f4f6" stroke-width="1"/>

  <!-- Row 2 -->
  <text x="264" y="300" fill="#2563eb" font-size="11" font-family="monospace" font-weight="500">CASE-002</text>
  <rect x="360" y="288" width="36" height="18" rx="9" fill="#fff7ed"/>
  <text x="378" y="301" text-anchor="middle" fill="#9a3412" font-size="9" font-weight="500">high</text>
  <text x="440" y="300" fill="#f97316" font-size="11" font-weight="600">P2</text>
  <text x="490" y="296" fill="#111827" font-size="11" font-weight="500">Suspicious lateral movement</text>
  <text x="490" y="310" fill="#6b7280" font-size="9">GlobalTech Manufacturing</text>
  <rect x="700" y="288" width="56" height="18" rx="9" fill="#dbeafe"/>
  <text x="728" y="301" text-anchor="middle" fill="#1e40af" font-size="9" font-weight="500">assigned</text>
  <text x="800" y="300" fill="#374151" font-size="11">Priya Singh</text>
  <text x="910" y="300" fill="#22c55e" font-size="10">On Track</text>
  <text x="990" y="300" fill="#6b7280" font-size="10">15m ago</text>
  <line x1="260" y1="318" x2="1054" y2="318" stroke="#f3f4f6" stroke-width="1"/>

  <!-- Row 3 -->
  <text x="264" y="340" fill="#2563eb" font-size="11" font-family="monospace" font-weight="500">CASE-003</text>
  <rect x="360" y="328" width="52" height="18" rx="9" fill="#fef9c3"/>
  <text x="386" y="341" text-anchor="middle" fill="#854d0e" font-size="9" font-weight="500">medium</text>
  <text x="440" y="340" fill="#6b7280" font-size="11" font-weight="600">P3</text>
  <text x="490" y="336" fill="#111827" font-size="11" font-weight="500">Phishing email campaign detected</text>
  <text x="490" y="350" fill="#6b7280" font-size="9">Acme Financial</text>
  <rect x="700" y="328" width="36" height="18" rx="9" fill="#f3f4f6"/>
  <text x="718" y="341" text-anchor="middle" fill="#374151" font-size="9" font-weight="500">new</text>
  <text x="800" y="340" fill="#9ca3af" font-size="11">Unassigned</text>
  <text x="910" y="340" fill="#22c55e" font-size="10">On Track</text>
  <text x="990" y="340" fill="#6b7280" font-size="10">1h ago</text>
  <line x1="260" y1="358" x2="1054" y2="358" stroke="#f3f4f6" stroke-width="1"/>

  <!-- Row 4 -->
  <text x="264" y="380" fill="#2563eb" font-size="11" font-family="monospace" font-weight="500">CASE-004</text>
  <rect x="360" y="368" width="36" height="18" rx="9" fill="#fff7ed"/>
  <text x="378" y="381" text-anchor="middle" fill="#9a3412" font-size="9" font-weight="500">high</text>
  <text x="440" y="380" fill="#f97316" font-size="11" font-weight="600">P2</text>
  <text x="490" y="376" fill="#111827" font-size="11" font-weight="500">Data exfiltration attempt - SQL injection</text>
  <text x="490" y="390" fill="#6b7280" font-size="9">CityPower Utilities</text>
  <rect x="700" y="368" width="56" height="18" rx="9" fill="#dcfce7"/>
  <text x="728" y="381" text-anchor="middle" fill="#166534" font-size="9" font-weight="500">resolved</text>
  <text x="800" y="380" fill="#374151" font-size="11">Analyst Kumar</text>
  <text x="910" y="380" fill="#22c55e" font-size="10">On Track</text>
  <text x="990" y="380" fill="#6b7280" font-size="10">3h ago</text>
  <line x1="260" y1="398" x2="1054" y2="398" stroke="#f3f4f6" stroke-width="1"/>

  <!-- Row 5 -->
  <text x="264" y="420" fill="#2563eb" font-size="11" font-family="monospace" font-weight="500">CASE-005</text>
  <rect x="360" y="408" width="32" height="18" rx="9" fill="#dcfce7"/>
  <text x="376" y="421" text-anchor="middle" fill="#166534" font-size="9" font-weight="500">low</text>
  <text x="440" y="420" fill="#6b7280" font-size="11" font-weight="600">P4</text>
  <text x="490" y="416" fill="#111827" font-size="11" font-weight="500">Unauthorized access attempt - web portal</text>
  <text x="490" y="430" fill="#6b7280" font-size="9">GlobalTech Manufacturing</text>
  <rect x="700" y="408" width="44" height="18" rx="9" fill="#e0e7ff"/>
  <text x="722" y="421" text-anchor="middle" fill="#3730a3" font-size="9" font-weight="500">closed</text>
  <text x="800" y="420" fill="#374151" font-size="11">Priya Singh</text>
  <text x="910" y="420" fill="#22c55e" font-size="10">On Track</text>
  <text x="990" y="420" fill="#6b7280" font-size="10">1d ago</text>

  <!-- Pagination -->
  <text x="264" y="640" fill="#6b7280" font-size="11">Showing 1-5 of 47 cases</text>
  <rect x="960" y="624" width="30" height="26" rx="6" fill="#f3f4f6"/>
  <text x="975" y="641" text-anchor="middle" fill="#6b7280" font-size="11">‹</text>
  <rect x="996" y="624" width="30" height="26" rx="6" fill="#2563eb"/>
  <text x="1011" y="641" text-anchor="middle" fill="white" font-size="11">1</text>
  <rect x="1032" y="624" width="30" height="26" rx="6" fill="#f3f4f6"/>
  <text x="1047" y="641" text-anchor="middle" fill="#6b7280" font-size="11">›</text>
</svg>