<svg xmlns="http://www.w3.org/2000/svg" viewBox="0 0 1100 620" font-family="-apple-system, BlinkMacSystemFont, 'Segoe UI', sans-serif">
  <!-- Browser frame -->
  <rect width="1100" height="620" fill="#f9fafb" rx="12"/>
  <rect x="0" y="0" width="1100" height="30" fill="#f3f4f6" rx="12"/>
  <rect x="0" y="18" width="1100" height="12" fill="#f3f4f6"/>
  <circle cx="18" cy="14" r="5" fill="#ef4444"/>
  <circle cx="36" cy="14" r="5" fill="#f59e0b"/>
  <circle cx="54" cy="14" r="5" fill="#22c55e"/>
  <rect x="300" y="6" width="500" height="18" rx="9" fill="#e5e7eb"/>
  <text x="550" y="19" text-anchor="middle" fill="#6b7280" font-size="10">localhost:5173/alerts</text>

  <!-- Sidebar (condensed) -->
  <rect x="0" y="30" width="220" height="590" fill="#111827"/>
  <text x="60" y="58" fill="white" font-size="14" font-weight="bold">TechD SOC</text>
  <text x="48" y="108" fill="#9ca3af" font-size="12">📊 Dashboard</text>
  <rect x="12" y="120" width="196" height="32" rx="8" fill="#2563eb"/>
  <text x="48" y="142" fill="white" font-size="12">⚠️ Alert Queue</text>
  <text x="48" y="174" fill="#9ca3af" font-size="12">📁 Cases</text>

  <!-- Top Header -->
  <rect x="220" y="30" width="880" height="50" fill="white" stroke="#e5e7eb" stroke-width="1"/>

  <!-- Page Header -->
  <text x="244" y="110" fill="#111827" font-size="20" font-weight="bold">Alert Queue</text>
  <rect x="954" y="90" width="110" height="34" rx="8" fill="#f3f4f6" stroke="#d1d5db" stroke-width="1"/>
  <text x="1009" y="112" text-anchor="middle" fill="#374151" font-size="12">🔄 Refresh</text>

  <!-- Filter Bar -->
  <rect x="244" y="128" width="826" height="56" rx="12" fill="white" stroke="#e5e7eb" stroke-width="1"/>
  <rect x="260" y="140" width="270" height="32" rx="8" fill="#f9fafb" stroke="#d1d5db" stroke-width="1"/>
  <text x="288" y="161" fill="#9ca3af" font-size="11">🔍 Search alerts...</text>
  <rect x="542" y="140" width="130" height="32" rx="8" fill="#f9fafb" stroke="#d1d5db" stroke-width="1"/>
  <text x="558" y="161" fill="#6b7280" font-size="11">All Severities ▾</text>
  <rect x="684" y="140" width="130" height="32" rx="8" fill="#f9fafb" stroke="#d1d5db" stroke-width="1"/>
  <text x="700" y="161" fill="#6b7280" font-size="11">All Platforms ▾</text>
  <rect x="826" y="140" width="130" height="32" rx="8" fill="#f9fafb" stroke="#d1d5db" stroke-width="1"/>
  <text x="842" y="161" fill="#6b7280" font-size="11">All Statuses ▾</text>

  <!-- Data Table -->
  <rect x="244" y="200" width="826" height="400" rx="12" fill="white" stroke="#e5e7eb" stroke-width="1"/>

  <!-- Table Header -->
  <rect x="244" y="200" width="826" height="36" rx="12" fill="#f9fafb"/>
  <rect x="244" y="224" width="826" height="12" fill="#f9fafb"/>
  <text x="264" y="222" fill="#6b7280" font-size="10" font-weight="600">SRC</text>
  <text x="310" y="222" fill="#6b7280" font-size="10" font-weight="600">SEVERITY</text>
  <text x="400" y="222" fill="#6b7280" font-size="10" font-weight="600">ALERT NAME</text>
  <text x="640" y="222" fill="#6b7280" font-size="10" font-weight="600">CUSTOMER</text>
  <text x="760" y="222" fill="#6b7280" font-size="10" font-weight="600">STATUS</text>
  <text x="860" y="222" fill="#6b7280" font-size="10" font-weight="600">ASSIGNED TO</text>
  <text x="990" y="222" fill="#6b7280" font-size="10" font-weight="600">CREATED</text>

  <!-- Row 1 -->
  <rect x="260" y="244" width="28" height="22" rx="4" fill="#dbeafe"/>
  <text x="274" y="260" text-anchor="middle" fill="#1e40af" font-size="8" font-weight="bold">SX</text>
  <rect x="310" y="246" width="52" height="18" rx="9" fill="#fef2f2"/>
  <text x="336" y="259" text-anchor="middle" fill="#991b1b" font-size="9" font-weight="500">critical</text>
  <text x="400" y="256" fill="#111827" font-size="11" font-weight="500">Ransomware Activity Detected</text>
  <text x="400" y="270" fill="#6b7280" font-size="9">SX-VIO-2024-00891</text>
  <text x="640" y="260" fill="#374151" font-size="11">Acme Financial</text>
  <rect x="760" y="248" width="36" height="18" rx="9" fill="#f3f4f6"/>
  <text x="778" y="261" text-anchor="middle" fill="#374151" font-size="9" font-weight="500">new</text>
  <text x="860" y="260" fill="#9ca3af" font-size="11">Unassigned</text>
  <text x="990" y="260" fill="#6b7280" font-size="10">2m ago</text>
  <line x1="260" y1="278" x2="1054" y2="278" stroke="#f3f4f6" stroke-width="1"/>

  <!-- Row 2 -->
  <rect x="260" y="286" width="28" height="22" rx="4" fill="#dcfce7"/>
  <text x="274" y="302" text-anchor="middle" fill="#166534" font-size="8" font-weight="bold">SP</text>
  <rect x="310" y="288" width="36" height="18" rx="9" fill="#fff7ed"/>
  <text x="328" y="301" text-anchor="middle" fill="#9a3412" font-size="9" font-weight="500">high</text>
  <text x="400" y="298" fill="#111827" font-size="11" font-weight="500">Brute Force SSH Login</text>
  <text x="400" y="312" fill="#6b7280" font-size="9">SPLUNK-NOT-2024-45123</text>
  <text x="640" y="302" fill="#374151" font-size="11">GlobalTech Mfg</text>
  <rect x="760" y="290" width="64" height="18" rx="9" fill="#fef3c7"/>
  <text x="792" y="303" text-anchor="middle" fill="#92400e" font-size="9" font-weight="500">in_progress</text>
  <text x="860" y="302" fill="#374151" font-size="11">Analyst Kumar</text>
  <text x="990" y="302" fill="#6b7280" font-size="10">15m ago</text>
  <line x1="260" y1="320" x2="1054" y2="320" stroke="#f3f4f6" stroke-width="1"/>

  <!-- Row 3 -->
  <rect x="260" y="328" width="28" height="22" rx="4" fill="#fff7ed"/>
  <text x="274" y="344" text-anchor="middle" fill="#9a3412" font-size="8" font-weight="bold">FS</text>
  <rect x="310" y="330" width="52" height="18" rx="9" fill="#fef9c3"/>
  <text x="336" y="343" text-anchor="middle" fill="#854d0e" font-size="9" font-weight="500">medium</text>
  <text x="400" y="340" fill="#111827" font-size="11" font-weight="500">Suspicious DNS Query Pattern</text>
  <text x="400" y="354" fill="#6b7280" font-size="9">FSOAR-INC-2024-12789</text>
  <text x="640" y="344" fill="#374151" font-size="11">CityPower Utils</text>
  <rect x="760" y="332" width="56" height="18" rx="9" fill="#e0e7ff"/>
  <text x="788" y="345" text-anchor="middle" fill="#3730a3" font-size="9" font-weight="500">escalated</text>
  <text x="860" y="344" fill="#374151" font-size="11">Priya Singh</text>
  <text x="990" y="344" fill="#6b7280" font-size="10">1h ago</text>
  <line x1="260" y1="362" x2="1054" y2="362" stroke="#f3f4f6" stroke-width="1"/>

  <!-- Row 4 -->
  <rect x="260" y="370" width="28" height="22" rx="4" fill="#f0fdf4"/>
  <text x="274" y="386" text-anchor="middle" fill="#166534" font-size="8" font-weight="bold">SC</text>
  <rect x="310" y="372" width="36" height="18" rx="9" fill="#fff7ed"/>
  <text x="328" y="385" text-anchor="middle" fill="#9a3412" font-size="9" font-weight="500">high</text>
  <text x="400" y="382" fill="#111827" font-size="11" font-weight="500">Privilege Escalation Attempt</text>
  <text x="400" y="396" fill="#6b7280" font-size="9">SECEON-THR-2024-78901</text>
  <text x="640" y="386" fill="#374151" font-size="11">Acme Financial</text>
  <rect x="760" y="374" width="56" height="18" rx="9" fill="#dcfce7"/>
  <text x="788" y="387" text-anchor="middle" fill="#166534" font-size="9" font-weight="500">resolved</text>
  <text x="860" y="386" fill="#374151" font-size="11">Analyst Kumar</text>
  <text x="990" y="386" fill="#6b7280" font-size="10">3h ago</text>

  <!-- Pagination -->
  <text x="264" y="580" fill="#6b7280" font-size="11">Showing 1-50 of 234 alerts</text>
  <rect x="960" y="564" width="30" height="26" rx="6" fill="#2563eb"/>
  <text x="975" y="581" text-anchor="middle" fill="white" font-size="11">1</text>
  <rect x="996" y="564" width="30" height="26" rx="6" fill="#f3f4f6"/>
  <text x="1011" y="581" text-anchor="middle" fill="#6b7280" font-size="11">2</text>
  <rect x="1032" y="564" width="30" height="26" rx="6" fill="#f3f4f6"/>
  <text x="1047" y="581" text-anchor="middle" fill="#6b7280" font-size="11">›</text>
</svg>